<?xml version="1.0" encoding="UTF-8" standalone="no"?>
<!-- Created by diasvg.py -->
<svg width="28.464cm" height="25.775cm" viewBox="-20.850 30.700 7.614 56.475"
 xmlns="http://www.w3.org/2000/svg"
 xmlns:xlink="http://www.w3.org/1999/xlink">
<ellipse cx="-19.550" cy="38.450" rx="0.300" ry="0.300" fill="#FFFFFF" stroke="none"  /><ellipse cx="-19.550" cy="38.450" rx="0.300" ry="0.300" fill="none" stroke="#000000"  stroke-width="0.100" /><line x1="-20.750" y1="39.050" x2="-18.350" y2="39.050" stroke="#000000" stroke-width="0.100" />
<line x1="-19.550" y1="38.750" x2="-19.550" y2="40.250" stroke="#000000" stroke-width="0.100" />
<line x1="-19.550" y1="40.250" x2="-20.750" y2="41.550" stroke="#000000" stroke-width="0.100" />
<line x1="-19.550" y1="40.250" x2="-18.350" y2="41.550" stroke="#000000" stroke-width="0.100" />
<text x="-19.550" y="42.745"  fill="#000000" text-anchor="middle" font-size="0.80" font-family="sans" font-style="normal" font-weight="400">
user</text>
<rect x="-6.700" y="35.800" width="3.830" height="1.800" fill="#FFFFFF" stroke="none" stroke-width="0"/>
<path stroke="none" fill="#FFFFFF" d ="M -6.700,35.800 A 0.900,0.900 0 0,0 -7.600,36.700 "/>
<path stroke="none" fill="#FFFFFF" d ="M -1.970,36.700 A 0.900,0.900 0 0,0 -2.870,35.800 "/>
<rect x="-7.600" y="36.700" width="5.630" height="0.000" fill="#FFFFFF" stroke="none" stroke-width="0"/>
<path stroke="none" fill="#FFFFFF" d ="M -7.600,36.700 A 0.900,0.900 0 0,0 -6.700,37.600 "/>
<path stroke="none" fill="#FFFFFF" d ="M -2.870,37.600 A 0.900,0.900 0 0,0 -1.970,36.700 "/>
<line x1="-6.700" y1="35.800" x2="-2.870" y2="35.800" stroke="#000000" stroke-width="0.100" />
<line x1="-6.700" y1="37.600" x2="-2.870" y2="37.600" stroke="#000000" stroke-width="0.100" />
<path stroke="#000000" fill="none" stroke-width="0.100"  d ="M -6.700,35.800 A 0.900,0.900 0 0,0 -7.600,36.700 "/>
<path stroke="#000000" fill="none" stroke-width="0.100"  d ="M -1.970,36.700 A 0.900,0.900 0 0,0 -2.870,35.800 "/>
<line x1="-7.600" y1="36.700" x2="-7.600" y2="36.700" stroke="#000000" stroke-width="0.100" />
<line x1="-1.970" y1="36.700" x2="-1.970" y2="36.700" stroke="#000000" stroke-width="0.100" />
<path stroke="#000000" fill="none" stroke-width="0.100"  d ="M -7.600,36.700 A 0.900,0.900 0 0,0 -6.700,37.600 "/>
<path stroke="#000000" fill="none" stroke-width="0.100"  d ="M -2.870,37.600 A 0.900,0.900 0 0,0 -1.970,36.700 "/>
<text x="-4.785" y="36.895"  fill="#000000" text-anchor="middle" font-size="0.80" font-family="sans" font-style="normal" font-weight="400">
data modeling</text>
<rect x="-9.300" y="30.750" width="2.228" height="1.800" fill="#FFFFFF" stroke="none" stroke-width="0"/>
<path stroke="none" fill="#FFFFFF" d ="M -9.300,30.750 A 0.900,0.900 0 0,0 -10.200,31.650 "/>
<path stroke="none" fill="#FFFFFF" d ="M -6.172,31.650 A 0.900,0.900 0 0,0 -7.072,30.750 "/>
<rect x="-10.200" y="31.650" width="4.027" height="0.000" fill="#FFFFFF" stroke="none" stroke-width="0"/>
<path stroke="none" fill="#FFFFFF" d ="M -10.200,31.650 A 0.900,0.900 0 0,0 -9.300,32.550 "/>
<path stroke="none" fill="#FFFFFF" d ="M -7.072,32.550 A 0.900,0.900 0 0,0 -6.172,31.650 "/>
<line x1="-9.300" y1="30.750" x2="-7.072" y2="30.750" stroke="#000000" stroke-width="0.100" />
<line x1="-9.300" y1="32.550" x2="-7.072" y2="32.550" stroke="#000000" stroke-width="0.100" />
<path stroke="#000000" fill="none" stroke-width="0.100"  d ="M -9.300,30.750 A 0.900,0.900 0 0,0 -10.200,31.650 "/>
<path stroke="#000000" fill="none" stroke-width="0.100"  d ="M -6.172,31.650 A 0.900,0.900 0 0,0 -7.072,30.750 "/>
<line x1="-10.200" y1="31.650" x2="-10.200" y2="31.650" stroke="#000000" stroke-width="0.100" />
<line x1="-6.172" y1="31.650" x2="-6.172" y2="31.650" stroke="#000000" stroke-width="0.100" />
<path stroke="#000000" fill="none" stroke-width="0.100"  d ="M -10.200,31.650 A 0.900,0.900 0 0,0 -9.300,32.550 "/>
<path stroke="#000000" fill="none" stroke-width="0.100"  d ="M -7.072,32.550 A 0.900,0.900 0 0,0 -6.172,31.650 "/>
<text x="-8.186" y="31.845"  fill="#000000" text-anchor="middle" font-size="0.80" font-family="sans" font-style="normal" font-weight="400">
Raw Logs</text>
<line x1="-8.415" y1="36.942" x2="-18.250" y2="39.864" stroke="#000000" stroke-width="0.100" />
<polygon fill="#000000" stroke="none" stroke-width="0.100" points="-8.344,37.182 -7.648,36.714 -8.486,36.702 "/>
<polygon fill="none" stroke="#000000" stroke-width="0.100"  points="-8.344,37.182 -7.648,36.714 -8.486,36.702 "/>
<text x="-12.415" y="39.660"  fill="#000000" text-anchor="middle" font-size="0.80" font-family="sans" font-style="normal" font-weight="400">
Start Parsing</text>
<polygon fill="#FFFFFF" stroke="none" stroke-width="0.100" points="-7.950,46.850 -7.450,46.350 -3.362,46.350 -3.362,48.950 -3.862,49.450 -7.950,49.450 -7.950,46.850 "/>
<polygon fill="none" stroke="#000000" stroke-width="0.100"  points="-7.950,46.850 -7.450,46.350 -3.362,46.350 -3.362,48.950 -3.862,49.450 -7.950,49.450 -7.950,46.850 "/>
<line x1="-7.950" y1="46.850" x2="-3.862" y2="46.850" stroke="#000000" stroke-width="0.100" />
<line x1="-3.862" y1="46.850" x2="-3.362" y2="46.350" stroke="#000000" stroke-width="0.100" />
<line x1="-3.862" y1="46.850" x2="-3.862" y2="49.450" stroke="#000000" stroke-width="0.100" />
<text x="-7.450" y="47.945"  fill="#000000" text-anchor="start" font-size="0.80" font-family="sans" font-style="normal" font-weight="400">
DataBase</text>
<line x1="-7.450" y1="48.095" x2="-4.363" y2="48.095" stroke="#000000" stroke-width="0.050" />
<line x1="-5.653" y1="45.454" x2="-4.914" y2="37.600" stroke="#000000" stroke-width="0.100" />
<polygon fill="#000000" stroke="none" stroke-width="0.100" points="-5.901,45.430 -5.728,46.250 -5.404,45.477 "/>
<polygon fill="none" stroke="#000000" stroke-width="0.100"  points="-5.901,45.430 -5.728,46.250 -5.404,45.477 "/>
<text x="-2.002" y="42.325"  fill="#000000" text-anchor="middle" font-size="0.80" font-family="sans" font-style="normal" font-weight="400">
Store Parsed Data</text>
<rect x="-10.740" y="54.625" width="5.563" height="1.800" fill="#FFFFFF" stroke="none" stroke-width="0"/>
<path stroke="none" fill="#FFFFFF" d ="M -10.740,54.625 A 0.900,0.900 0 0,0 -11.640,55.525 "/>
<path stroke="none" fill="#FFFFFF" d ="M -4.277,55.525 A 0.900,0.900 0 0,0 -5.177,54.625 "/>
<rect x="-11.640" y="55.525" width="7.362" height="0.000" fill="#FFFFFF" stroke="none" stroke-width="0"/>
<path stroke="none" fill="#FFFFFF" d ="M -11.640,55.525 A 0.900,0.900 0 0,0 -10.740,56.425 "/>
<path stroke="none" fill="#FFFFFF" d ="M -5.177,56.425 A 0.900,0.900 0 0,0 -4.277,55.525 "/>
<line x1="-10.740" y1="54.625" x2="-5.177" y2="54.625" stroke="#000000" stroke-width="0.100" />
<line x1="-10.740" y1="56.425" x2="-5.177" y2="56.425" stroke="#000000" stroke-width="0.100" />
<path stroke="#000000" fill="none" stroke-width="0.100"  d ="M -10.740,54.625 A 0.900,0.900 0 0,0 -11.640,55.525 "/>
<path stroke="#000000" fill="none" stroke-width="0.100"  d ="M -4.277,55.525 A 0.900,0.900 0 0,0 -5.177,54.625 "/>
<line x1="-11.640" y1="55.525" x2="-11.640" y2="55.525" stroke="#000000" stroke-width="0.100" />
<line x1="-4.277" y1="55.525" x2="-4.277" y2="55.525" stroke="#000000" stroke-width="0.100" />
<path stroke="#000000" fill="none" stroke-width="0.100"  d ="M -11.640,55.525 A 0.900,0.900 0 0,0 -10.740,56.425 "/>
<path stroke="#000000" fill="none" stroke-width="0.100"  d ="M -5.177,56.425 A 0.900,0.900 0 0,0 -4.277,55.525 "/>
<text x="-7.958" y="55.720"  fill="#000000" text-anchor="middle" font-size="0.80" font-family="sans" font-style="normal" font-weight="400">
Statistic Generation</text>
<line x1="-7.864" y1="53.841" x2="-6.020" y2="49.450" stroke="#000000" stroke-width="0.100" />
<polygon fill="#000000" stroke="none" stroke-width="0.100" points="-8.095,53.745 -8.174,54.579 -7.634,53.938 "/>
<polygon fill="none" stroke="#000000" stroke-width="0.100"  points="-8.095,53.745 -8.174,54.579 -7.634,53.938 "/>
<text x="-4.352" y="51.925"  fill="#000000" text-anchor="middle" font-size="0.80" font-family="sans" font-style="normal" font-weight="400">
query for data </text>
<ellipse cx="5.038" cy="50.788" rx="0.300" ry="0.300" fill="#FFFFFF" stroke="none"  /><ellipse cx="5.038" cy="50.788" rx="0.300" ry="0.300" fill="none" stroke="#000000"  stroke-width="0.100" /><line x1="3.838" y1="51.388" x2="6.238" y2="51.388" stroke="#000000" stroke-width="0.100" />
<line x1="5.038" y1="51.087" x2="5.038" y2="52.588" stroke="#000000" stroke-width="0.100" />
<line x1="5.038" y1="52.588" x2="3.838" y2="53.888" stroke="#000000" stroke-width="0.100" />
<line x1="5.038" y1="52.588" x2="6.238" y2="53.888" stroke="#000000" stroke-width="0.100" />
<text x="5.038" y="55.083"  fill="#000000" text-anchor="middle" font-size="0.80" font-family="sans" font-style="normal" font-weight="400">
Statistic Display</text>
<line x1="1.652" y1="53.655" x2="-4.277" y2="55.525" stroke="#000000" stroke-width="0.100" />
<polygon fill="#000000" stroke="none" stroke-width="0.100" points="1.727,53.894 2.414,53.415 1.576,53.417 "/>
<polygon fill="none" stroke="#000000" stroke-width="0.100"  points="1.727,53.894 2.414,53.415 1.576,53.417 "/>
<text x="-1.602" y="53.475"  fill="#000000" text-anchor="middle" font-size="0.80" font-family="sans" font-style="normal" font-weight="400">
Send Result</text>
<line x1="-12.061" y1="53.887" x2="-18.300" y2="42.950" stroke="#000000" stroke-width="0.100" />
<polygon fill="#000000" stroke="none" stroke-width="0.100" points="-12.278,54.011 -11.664,54.582 -11.844,53.763 "/>
<polygon fill="none" stroke="#000000" stroke-width="0.100"  points="-12.278,54.011 -11.664,54.582 -11.844,53.763 "/>
<text x="-12.702" y="47.225"  fill="#000000" text-anchor="middle" font-size="0.80" font-family="sans" font-style="normal" font-weight="400">
Ask For a Statistic</text>
<line x1="-5.518" y1="35.202" x2="-8.200" y2="32.550" stroke="#000000" stroke-width="0.100" />
<polygon fill="#000000" stroke="none" stroke-width="0.100" points="-5.694,35.380 -4.949,35.765 -5.342,35.025 "/>
<polygon fill="none" stroke="#000000" stroke-width="0.100"  points="-5.694,35.380 -4.949,35.765 -5.342,35.025 "/>
<text x="-4.502" y="33.975"  fill="#000000" text-anchor="middle" font-size="0.80" font-family="sans" font-style="normal" font-weight="400">
Get Raw Logs</text>
</svg>