<?xml version="1.0" encoding="UTF-8" standalone="no"?>
<!-- Created by diasvg.py -->
<svg width="39.465cm" height="35.500cm" viewBox="-24.000 4.400 15.465 39.900"
 xmlns="http://www.w3.org/2000/svg"
 xmlns:xlink="http://www.w3.org/1999/xlink">
<rect x="-23.450" y="7.450" width="3.000" height="1.800" fill="#FFFFFF" stroke="none" stroke-width="0"/>
<path stroke="none" fill="#FFFFFF" d ="M -23.450,7.450 A 0.500,0.500 0 0,0 -23.950,7.950 "/>
<path stroke="none" fill="#FFFFFF" d ="M -19.950,7.950 A 0.500,0.500 0 0,0 -20.450,7.450 "/>
<rect x="-23.950" y="7.950" width="4.000" height="0.800" fill="#FFFFFF" stroke="none" stroke-width="0"/>
<path stroke="none" fill="#FFFFFF" d ="M -23.950,8.750 A 0.500,0.500 0 0,0 -23.450,9.250 "/>
<path stroke="none" fill="#FFFFFF" d ="M -20.450,9.250 A 0.500,0.500 0 0,0 -19.950,8.750 "/>
<line x1="-23.450" y1="7.450" x2="-20.450" y2="7.450" stroke="#000000" stroke-width="0.100" />
<line x1="-23.450" y1="9.250" x2="-20.450" y2="9.250" stroke="#000000" stroke-width="0.100" />
<path stroke="#000000" fill="none" stroke-width="0.100"  d ="M -23.450,7.450 A 0.500,0.500 0 0,0 -23.950,7.950 "/>
<path stroke="#000000" fill="none" stroke-width="0.100"  d ="M -19.950,7.950 A 0.500,0.500 0 0,0 -20.450,7.450 "/>
<line x1="-23.950" y1="7.950" x2="-23.950" y2="8.750" stroke="#000000" stroke-width="0.100" />
<line x1="-19.950" y1="7.950" x2="-19.950" y2="8.750" stroke="#000000" stroke-width="0.100" />
<path stroke="#000000" fill="none" stroke-width="0.100"  d ="M -23.950,8.750 A 0.500,0.500 0 0,0 -23.450,9.250 "/>
<path stroke="#000000" fill="none" stroke-width="0.100"  d ="M -20.450,9.250 A 0.500,0.500 0 0,0 -19.950,8.750 "/>
<text x="-21.950" y="8.635"  fill="#000000" text-anchor="middle" font-size="0.80" font-family="sans" font-style="normal" font-weight="400">
Raw log</text>
<rect x="-14.550" y="7.450" width="5.150" height="1.800" fill="#FFFFFF" stroke="none" stroke-width="0"/>
<path stroke="none" fill="#FFFFFF" d ="M -14.550,7.450 A 0.500,0.500 0 0,0 -15.050,7.950 "/>
<path stroke="none" fill="#FFFFFF" d ="M -8.900,7.950 A 0.500,0.500 0 0,0 -9.400,7.450 "/>
<rect x="-15.050" y="7.950" width="6.150" height="0.800" fill="#FFFFFF" stroke="none" stroke-width="0"/>
<path stroke="none" fill="#FFFFFF" d ="M -15.050,8.750 A 0.500,0.500 0 0,0 -14.550,9.250 "/>
<path stroke="none" fill="#FFFFFF" d ="M -9.400,9.250 A 0.500,0.500 0 0,0 -8.900,8.750 "/>
<line x1="-14.550" y1="7.450" x2="-9.400" y2="7.450" stroke="#000000" stroke-width="0.100" />
<line x1="-14.550" y1="9.250" x2="-9.400" y2="9.250" stroke="#000000" stroke-width="0.100" />
<path stroke="#000000" fill="none" stroke-width="0.100"  d ="M -14.550,7.450 A 0.500,0.500 0 0,0 -15.050,7.950 "/>
<path stroke="#000000" fill="none" stroke-width="0.100"  d ="M -8.900,7.950 A 0.500,0.500 0 0,0 -9.400,7.450 "/>
<line x1="-15.050" y1="7.950" x2="-15.050" y2="8.750" stroke="#000000" stroke-width="0.100" />
<line x1="-8.900" y1="7.950" x2="-8.900" y2="8.750" stroke="#000000" stroke-width="0.100" />
<path stroke="#000000" fill="none" stroke-width="0.100"  d ="M -15.050,8.750 A 0.500,0.500 0 0,0 -14.550,9.250 "/>
<path stroke="#000000" fill="none" stroke-width="0.100"  d ="M -9.400,9.250 A 0.500,0.500 0 0,0 -8.900,8.750 "/>
<text x="-11.975" y="8.635"  fill="#000000" text-anchor="middle" font-size="0.80" font-family="sans" font-style="normal" font-weight="400">
Read game Head</text>
<line x1="-19.950" y1="8.350" x2="-15.537" y2="8.350" stroke="#000000" stroke-width="0.100" />
<polygon fill="#000000" stroke="none" stroke-width="0.100" points="-15.162,8.350 -15.662,8.600 -15.537,8.350 -15.662,8.100 "/>
<polygon fill="none" stroke="#000000" stroke-width="0.100"  points="-15.162,8.350 -15.662,8.600 -15.537,8.350 -15.662,8.100 "/>
<rect x="-3.300" y="16.900" width="5.130" height="1.800" fill="#FFFFFF" stroke="none" stroke-width="0"/>
<path stroke="none" fill="#FFFFFF" d ="M -3.300,16.900 A 0.500,0.500 0 0,0 -3.800,17.400 "/>
<path stroke="none" fill="#FFFFFF" d ="M 2.330,17.400 A 0.500,0.500 0 0,0 1.830,16.900 "/>
<rect x="-3.800" y="17.400" width="6.130" height="0.800" fill="#FFFFFF" stroke="none" stroke-width="0"/>
<path stroke="none" fill="#FFFFFF" d ="M -3.800,18.200 A 0.500,0.500 0 0,0 -3.300,18.700 "/>
<path stroke="none" fill="#FFFFFF" d ="M 1.830,18.700 A 0.500,0.500 0 0,0 2.330,18.200 "/>
<line x1="-3.300" y1="16.900" x2="1.830" y2="16.900" stroke="#000000" stroke-width="0.100" />
<line x1="-3.300" y1="18.700" x2="1.830" y2="18.700" stroke="#000000" stroke-width="0.100" />
<path stroke="#000000" fill="none" stroke-width="0.100"  d ="M -3.300,16.900 A 0.500,0.500 0 0,0 -3.800,17.400 "/>
<path stroke="#000000" fill="none" stroke-width="0.100"  d ="M 2.330,17.400 A 0.500,0.500 0 0,0 1.830,16.900 "/>
<line x1="-3.800" y1="17.400" x2="-3.800" y2="18.200" stroke="#000000" stroke-width="0.100" />
<line x1="2.330" y1="17.400" x2="2.330" y2="18.200" stroke="#000000" stroke-width="0.100" />
<path stroke="#000000" fill="none" stroke-width="0.100"  d ="M -3.800,18.200 A 0.500,0.500 0 0,0 -3.300,18.700 "/>
<path stroke="#000000" fill="none" stroke-width="0.100"  d ="M 1.830,18.700 A 0.500,0.500 0 0,0 2.330,18.200 "/>
<text x="-0.735" y="18.085"  fill="#000000" text-anchor="middle" font-size="0.80" font-family="sans" font-style="normal" font-weight="400">
Read Player Data</text>
<rect x="-3.350" y="7.750" width="8.062" height="1.800" fill="#FFFFFF" stroke="none" stroke-width="0"/>
<path stroke="none" fill="#FFFFFF" d ="M -3.350,7.750 A 0.500,0.500 0 0,0 -3.850,8.250 "/>
<path stroke="none" fill="#FFFFFF" d ="M 5.213,8.250 A 0.500,0.500 0 0,0 4.713,7.750 "/>
<rect x="-3.850" y="8.250" width="9.062" height="0.800" fill="#FFFFFF" stroke="none" stroke-width="0"/>
<path stroke="none" fill="#FFFFFF" d ="M -3.850,9.050 A 0.500,0.500 0 0,0 -3.350,9.550 "/>
<path stroke="none" fill="#FFFFFF" d ="M 4.713,9.550 A 0.500,0.500 0 0,0 5.213,9.050 "/>
<line x1="-3.350" y1="7.750" x2="4.713" y2="7.750" stroke="#000000" stroke-width="0.100" />
<line x1="-3.350" y1="9.550" x2="4.713" y2="9.550" stroke="#000000" stroke-width="0.100" />
<path stroke="#000000" fill="none" stroke-width="0.100"  d ="M -3.350,7.750 A 0.500,0.500 0 0,0 -3.850,8.250 "/>
<path stroke="#000000" fill="none" stroke-width="0.100"  d ="M 5.213,8.250 A 0.500,0.500 0 0,0 4.713,7.750 "/>
<line x1="-3.850" y1="8.250" x2="-3.850" y2="9.050" stroke="#000000" stroke-width="0.100" />
<line x1="5.213" y1="8.250" x2="5.213" y2="9.050" stroke="#000000" stroke-width="0.100" />
<path stroke="#000000" fill="none" stroke-width="0.100"  d ="M -3.850,9.050 A 0.500,0.500 0 0,0 -3.350,9.550 "/>
<path stroke="#000000" fill="none" stroke-width="0.100"  d ="M 4.713,9.550 A 0.500,0.500 0 0,0 5.213,9.050 "/>
<text x="0.681" y="8.935"  fill="#000000" text-anchor="middle" font-size="0.80" font-family="sans" font-style="normal" font-weight="400">
Read Game AvailebleCards</text>
<rect x="10.700" y="17.050" width="3.760" height="1.800" fill="#FFFFFF" stroke="none" stroke-width="0"/>
<path stroke="none" fill="#FFFFFF" d ="M 10.700,17.050 A 0.500,0.500 0 0,0 10.200,17.550 "/>
<path stroke="none" fill="#FFFFFF" d ="M 14.960,17.550 A 0.500,0.500 0 0,0 14.460,17.050 "/>
<rect x="10.200" y="17.550" width="4.760" height="0.800" fill="#FFFFFF" stroke="none" stroke-width="0"/>
<path stroke="none" fill="#FFFFFF" d ="M 10.200,18.350 A 0.500,0.500 0 0,0 10.700,18.850 "/>
<path stroke="none" fill="#FFFFFF" d ="M 14.460,18.850 A 0.500,0.500 0 0,0 14.960,18.350 "/>
<line x1="10.700" y1="17.050" x2="14.460" y2="17.050" stroke="#000000" stroke-width="0.100" />
<line x1="10.700" y1="18.850" x2="14.460" y2="18.850" stroke="#000000" stroke-width="0.100" />
<path stroke="#000000" fill="none" stroke-width="0.100"  d ="M 10.700,17.050 A 0.500,0.500 0 0,0 10.200,17.550 "/>
<path stroke="#000000" fill="none" stroke-width="0.100"  d ="M 14.960,17.550 A 0.500,0.500 0 0,0 14.460,17.050 "/>
<line x1="10.200" y1="17.550" x2="10.200" y2="18.350" stroke="#000000" stroke-width="0.100" />
<line x1="14.960" y1="17.550" x2="14.960" y2="18.350" stroke="#000000" stroke-width="0.100" />
<path stroke="#000000" fill="none" stroke-width="0.100"  d ="M 10.200,18.350 A 0.500,0.500 0 0,0 10.700,18.850 "/>
<path stroke="#000000" fill="none" stroke-width="0.100"  d ="M 14.460,18.850 A 0.500,0.500 0 0,0 14.960,18.350 "/>
<text x="12.580" y="18.235"  fill="#000000" text-anchor="middle" font-size="0.80" font-family="sans" font-style="normal" font-weight="400">
Player Cards</text>
<rect x="10.800" y="13.400" width="4.115" height="1.800" fill="#FFFFFF" stroke="none" stroke-width="0"/>
<path stroke="none" fill="#FFFFFF" d ="M 10.800,13.400 A 0.500,0.500 0 0,0 10.300,13.900 "/>
<path stroke="none" fill="#FFFFFF" d ="M 15.415,13.900 A 0.500,0.500 0 0,0 14.915,13.400 "/>
<rect x="10.300" y="13.900" width="5.115" height="0.800" fill="#FFFFFF" stroke="none" stroke-width="0"/>
<path stroke="none" fill="#FFFFFF" d ="M 10.300,14.700 A 0.500,0.500 0 0,0 10.800,15.200 "/>
<path stroke="none" fill="#FFFFFF" d ="M 14.915,15.200 A 0.500,0.500 0 0,0 15.415,14.700 "/>
<line x1="10.800" y1="13.400" x2="14.915" y2="13.400" stroke="#000000" stroke-width="0.100" />
<line x1="10.800" y1="15.200" x2="14.915" y2="15.200" stroke="#000000" stroke-width="0.100" />
<path stroke="#000000" fill="none" stroke-width="0.100"  d ="M 10.800,13.400 A 0.500,0.500 0 0,0 10.300,13.900 "/>
<path stroke="#000000" fill="none" stroke-width="0.100"  d ="M 15.415,13.900 A 0.500,0.500 0 0,0 14.915,13.400 "/>
<line x1="10.300" y1="13.900" x2="10.300" y2="14.700" stroke="#000000" stroke-width="0.100" />
<line x1="15.415" y1="13.900" x2="15.415" y2="14.700" stroke="#000000" stroke-width="0.100" />
<path stroke="#000000" fill="none" stroke-width="0.100"  d ="M 10.300,14.700 A 0.500,0.500 0 0,0 10.800,15.200 "/>
<path stroke="#000000" fill="none" stroke-width="0.100"  d ="M 14.915,15.200 A 0.500,0.500 0 0,0 15.415,14.700 "/>
<text x="12.858" y="14.585"  fill="#000000" text-anchor="middle" font-size="0.80" font-family="sans" font-style="normal" font-weight="400">
Victory points</text>
<rect x="-3.350" y="4.450" width="3.000" height="1.800" fill="#FFFFFF" stroke="none" stroke-width="0"/>
<path stroke="none" fill="#FFFFFF" d ="M -3.350,4.450 A 0.500,0.500 0 0,0 -3.850,4.950 "/>
<path stroke="none" fill="#FFFFFF" d ="M 0.150,4.950 A 0.500,0.500 0 0,0 -0.350,4.450 "/>
<rect x="-3.850" y="4.950" width="4.000" height="0.800" fill="#FFFFFF" stroke="none" stroke-width="0"/>
<path stroke="none" fill="#FFFFFF" d ="M -3.850,5.750 A 0.500,0.500 0 0,0 -3.350,6.250 "/>
<path stroke="none" fill="#FFFFFF" d ="M -0.350,6.250 A 0.500,0.500 0 0,0 0.150,5.750 "/>
<line x1="-3.350" y1="4.450" x2="-0.350" y2="4.450" stroke="#000000" stroke-width="0.100" />
<line x1="-3.350" y1="6.250" x2="-0.350" y2="6.250" stroke="#000000" stroke-width="0.100" />
<path stroke="#000000" fill="none" stroke-width="0.100"  d ="M -3.350,4.450 A 0.500,0.500 0 0,0 -3.850,4.950 "/>
<path stroke="#000000" fill="none" stroke-width="0.100"  d ="M 0.150,4.950 A 0.500,0.500 0 0,0 -0.350,4.450 "/>
<line x1="-3.850" y1="4.950" x2="-3.850" y2="5.750" stroke="#000000" stroke-width="0.100" />
<line x1="0.150" y1="4.950" x2="0.150" y2="5.750" stroke="#000000" stroke-width="0.100" />
<path stroke="#000000" fill="none" stroke-width="0.100"  d ="M -3.850,5.750 A 0.500,0.500 0 0,0 -3.350,6.250 "/>
<path stroke="#000000" fill="none" stroke-width="0.100"  d ="M -0.350,6.250 A 0.500,0.500 0 0,0 0.150,5.750 "/>
<text x="-1.850" y="5.635"  fill="#000000" text-anchor="middle" font-size="0.80" font-family="sans" font-style="normal" font-weight="400">
Winners</text>
<rect x="-3.500" y="11.650" width="3.502" height="1.800" fill="#FFFFFF" stroke="none" stroke-width="0"/>
<path stroke="none" fill="#FFFFFF" d ="M -3.500,11.650 A 0.500,0.500 0 0,0 -4.000,12.150 "/>
<path stroke="none" fill="#FFFFFF" d ="M 0.502,12.150 A 0.500,0.500 0 0,0 0.002,11.650 "/>
<rect x="-4.000" y="12.150" width="4.502" height="0.800" fill="#FFFFFF" stroke="none" stroke-width="0"/>
<path stroke="none" fill="#FFFFFF" d ="M -4.000,12.950 A 0.500,0.500 0 0,0 -3.500,13.450 "/>
<path stroke="none" fill="#FFFFFF" d ="M 0.002,13.450 A 0.500,0.500 0 0,0 0.502,12.950 "/>
<line x1="-3.500" y1="11.650" x2="0.002" y2="11.650" stroke="#000000" stroke-width="0.100" />
<line x1="-3.500" y1="13.450" x2="0.002" y2="13.450" stroke="#000000" stroke-width="0.100" />
<path stroke="#000000" fill="none" stroke-width="0.100"  d ="M -3.500,11.650 A 0.500,0.500 0 0,0 -4.000,12.150 "/>
<path stroke="#000000" fill="none" stroke-width="0.100"  d ="M 0.502,12.150 A 0.500,0.500 0 0,0 0.002,11.650 "/>
<line x1="-4.000" y1="12.150" x2="-4.000" y2="12.950" stroke="#000000" stroke-width="0.100" />
<line x1="0.502" y1="12.150" x2="0.502" y2="12.950" stroke="#000000" stroke-width="0.100" />
<path stroke="#000000" fill="none" stroke-width="0.100"  d ="M -4.000,12.950 A 0.500,0.500 0 0,0 -3.500,13.450 "/>
<path stroke="#000000" fill="none" stroke-width="0.100"  d ="M 0.002,13.450 A 0.500,0.500 0 0,0 0.502,12.950 "/>
<text x="-1.749" y="12.835"  fill="#000000" text-anchor="middle" font-size="0.80" font-family="sans" font-style="normal" font-weight="400">
Cards Gone</text>
<rect x="-3.800" y="20.750" width="3.000" height="1.800" fill="#FFFFFF" stroke="none" stroke-width="0"/>
<path stroke="none" fill="#FFFFFF" d ="M -3.800,20.750 A 0.500,0.500 0 0,0 -4.300,21.250 "/>
<path stroke="none" fill="#FFFFFF" d ="M -0.300,21.250 A 0.500,0.500 0 0,0 -0.800,20.750 "/>
<rect x="-4.300" y="21.250" width="4.000" height="0.800" fill="#FFFFFF" stroke="none" stroke-width="0"/>
<path stroke="none" fill="#FFFFFF" d ="M -4.300,22.050 A 0.500,0.500 0 0,0 -3.800,22.550 "/>
<path stroke="none" fill="#FFFFFF" d ="M -0.800,22.550 A 0.500,0.500 0 0,0 -0.300,22.050 "/>
<line x1="-3.800" y1="20.750" x2="-0.800" y2="20.750" stroke="#000000" stroke-width="0.100" />
<line x1="-3.800" y1="22.550" x2="-0.800" y2="22.550" stroke="#000000" stroke-width="0.100" />
<path stroke="#000000" fill="none" stroke-width="0.100"  d ="M -3.800,20.750 A 0.500,0.500 0 0,0 -4.300,21.250 "/>
<path stroke="#000000" fill="none" stroke-width="0.100"  d ="M -0.300,21.250 A 0.500,0.500 0 0,0 -0.800,20.750 "/>
<line x1="-4.300" y1="21.250" x2="-4.300" y2="22.050" stroke="#000000" stroke-width="0.100" />
<line x1="-0.300" y1="21.250" x2="-0.300" y2="22.050" stroke="#000000" stroke-width="0.100" />
<path stroke="#000000" fill="none" stroke-width="0.100"  d ="M -4.300,22.050 A 0.500,0.500 0 0,0 -3.800,22.550 "/>
<path stroke="#000000" fill="none" stroke-width="0.100"  d ="M -0.800,22.550 A 0.500,0.500 0 0,0 -0.300,22.050 "/>
<text x="-2.300" y="21.935"  fill="#000000" text-anchor="middle" font-size="0.80" font-family="sans" font-style="normal" font-weight="400">
Trash</text>
<rect x="-14.550" y="31.450" width="5.585" height="1.800" fill="#FFFFFF" stroke="none" stroke-width="0"/>
<path stroke="none" fill="#FFFFFF" d ="M -14.550,31.450 A 0.500,0.500 0 0,0 -15.050,31.950 "/>
<path stroke="none" fill="#FFFFFF" d ="M -8.465,31.950 A 0.500,0.500 0 0,0 -8.965,31.450 "/>
<rect x="-15.050" y="31.950" width="6.585" height="0.800" fill="#FFFFFF" stroke="none" stroke-width="0"/>
<path stroke="none" fill="#FFFFFF" d ="M -15.050,32.750 A 0.500,0.500 0 0,0 -14.550,33.250 "/>
<path stroke="none" fill="#FFFFFF" d ="M -8.965,33.250 A 0.500,0.500 0 0,0 -8.465,32.750 "/>
<line x1="-14.550" y1="31.450" x2="-8.965" y2="31.450" stroke="#000000" stroke-width="0.100" />
<line x1="-14.550" y1="33.250" x2="-8.965" y2="33.250" stroke="#000000" stroke-width="0.100" />
<path stroke="#000000" fill="none" stroke-width="0.100"  d ="M -14.550,31.450 A 0.500,0.500 0 0,0 -15.050,31.950 "/>
<path stroke="#000000" fill="none" stroke-width="0.100"  d ="M -8.465,31.950 A 0.500,0.500 0 0,0 -8.965,31.450 "/>
<line x1="-15.050" y1="31.950" x2="-15.050" y2="32.750" stroke="#000000" stroke-width="0.100" />
<line x1="-8.465" y1="31.950" x2="-8.465" y2="32.750" stroke="#000000" stroke-width="0.100" />
<path stroke="#000000" fill="none" stroke-width="0.100"  d ="M -15.050,32.750 A 0.500,0.500 0 0,0 -14.550,33.250 "/>
<path stroke="#000000" fill="none" stroke-width="0.100"  d ="M -8.965,33.250 A 0.500,0.500 0 0,0 -8.465,32.750 "/>
<text x="-11.757" y="32.635"  fill="#000000" text-anchor="middle" font-size="0.80" font-family="sans" font-style="normal" font-weight="400">
Read Game Moves</text>
<line x1="-8.900" y1="8.350" x2="-4.269" y2="5.599" stroke="#000000" stroke-width="0.100" />
<polygon fill="#000000" stroke="none" stroke-width="0.100" points="-3.946,5.407 -4.248,5.877 -4.269,5.599 -4.504,5.448 "/>
<polygon fill="none" stroke="#000000" stroke-width="0.100"  points="-3.946,5.407 -4.248,5.877 -4.269,5.599 -4.504,5.448 "/>
<line x1="-8.900" y1="8.350" x2="-4.336" y2="8.621" stroke="#000000" stroke-width="0.100" />
<polygon fill="#000000" stroke="none" stroke-width="0.100" points="-3.962,8.643 -4.476,8.863 -4.336,8.621 -4.446,8.364 "/>
<polygon fill="none" stroke="#000000" stroke-width="0.100"  points="-3.962,8.643 -4.476,8.863 -4.336,8.621 -4.446,8.364 "/>
<line x1="-8.900" y1="8.350" x2="-4.031" y2="17.372" stroke="#000000" stroke-width="0.100" />
<polygon fill="#000000" stroke="none" stroke-width="0.100" points="-3.853,17.702 -4.311,17.380 -4.031,17.372 -3.871,17.143 "/>
<polygon fill="none" stroke="#000000" stroke-width="0.100"  points="-3.853,17.702 -4.311,17.380 -4.031,17.372 -3.871,17.143 "/>
<line x1="2.330" y1="17.800" x2="9.713" y2="17.941" stroke="#000000" stroke-width="0.100" />
<polygon fill="#000000" stroke="none" stroke-width="0.100" points="10.088,17.948 9.584,18.188 9.713,17.941 9.593,17.688 "/>
<polygon fill="none" stroke="#000000" stroke-width="0.100"  points="10.088,17.948 9.584,18.188 9.713,17.941 9.593,17.688 "/>
<line x1="-8.900" y1="8.350" x2="-4.370" y2="12.233" stroke="#000000" stroke-width="0.100" />
<polygon fill="#000000" stroke="none" stroke-width="0.100" points="-4.085,12.477 -4.627,12.342 -4.370,12.233 -4.302,11.962 "/>
<polygon fill="none" stroke="#000000" stroke-width="0.100"  points="-4.085,12.477 -4.627,12.342 -4.370,12.233 -4.302,11.962 "/>
<line x1="2.330" y1="17.800" x2="9.854" y2="14.496" stroke="#000000" stroke-width="0.100" />
<polygon fill="#000000" stroke="none" stroke-width="0.100" points="10.198,14.345 9.840,14.775 9.854,14.496 9.639,14.317 "/>
<polygon fill="none" stroke="#000000" stroke-width="0.100"  points="10.198,14.345 9.840,14.775 9.854,14.496 9.639,14.317 "/>
<rect x="10.800" y="20.200" width="3.805" height="1.800" fill="#FFFFFF" stroke="none" stroke-width="0"/>
<path stroke="none" fill="#FFFFFF" d ="M 10.800,20.200 A 0.500,0.500 0 0,0 10.300,20.700 "/>
<path stroke="none" fill="#FFFFFF" d ="M 15.105,20.700 A 0.500,0.500 0 0,0 14.605,20.200 "/>
<rect x="10.300" y="20.700" width="4.805" height="0.800" fill="#FFFFFF" stroke="none" stroke-width="0"/>
<path stroke="none" fill="#FFFFFF" d ="M 10.300,21.500 A 0.500,0.500 0 0,0 10.800,22.000 "/>
<path stroke="none" fill="#FFFFFF" d ="M 14.605,22.000 A 0.500,0.500 0 0,0 15.105,21.500 "/>
<line x1="10.800" y1="20.200" x2="14.605" y2="20.200" stroke="#000000" stroke-width="0.100" />
<line x1="10.800" y1="22.000" x2="14.605" y2="22.000" stroke="#000000" stroke-width="0.100" />
<path stroke="#000000" fill="none" stroke-width="0.100"  d ="M 10.800,20.200 A 0.500,0.500 0 0,0 10.300,20.700 "/>
<path stroke="#000000" fill="none" stroke-width="0.100"  d ="M 15.105,20.700 A 0.500,0.500 0 0,0 14.605,20.200 "/>
<line x1="10.300" y1="20.700" x2="10.300" y2="21.500" stroke="#000000" stroke-width="0.100" />
<line x1="15.105" y1="20.700" x2="15.105" y2="21.500" stroke="#000000" stroke-width="0.100" />
<path stroke="#000000" fill="none" stroke-width="0.100"  d ="M 10.300,21.500 A 0.500,0.500 0 0,0 10.800,22.000 "/>
<path stroke="#000000" fill="none" stroke-width="0.100"  d ="M 14.605,22.000 A 0.500,0.500 0 0,0 15.105,21.500 "/>
<text x="12.703" y="21.385"  fill="#000000" text-anchor="middle" font-size="0.80" font-family="sans" font-style="normal" font-weight="400">
victory cards</text>
<line x1="-19.950" y1="9.250" x2="-4.692" y2="20.462" stroke="#000000" stroke-width="0.100" />
<polygon fill="#000000" stroke="none" stroke-width="0.100" points="-4.390,20.684 -4.941,20.589 -4.692,20.462 -4.645,20.186 "/>
<polygon fill="none" stroke="#000000" stroke-width="0.100"  points="-4.390,20.684 -4.941,20.589 -4.692,20.462 -4.645,20.186 "/>
<rect x="-3.700" y="26.750" width="3.000" height="1.800" fill="#FFFFFF" stroke="none" stroke-width="0"/>
<path stroke="none" fill="#FFFFFF" d ="M -3.700,26.750 A 0.500,0.500 0 0,0 -4.200,27.250 "/>
<path stroke="none" fill="#FFFFFF" d ="M -0.200,27.250 A 0.500,0.500 0 0,0 -0.700,26.750 "/>
<rect x="-4.200" y="27.250" width="4.000" height="0.800" fill="#FFFFFF" stroke="none" stroke-width="0"/>
<path stroke="none" fill="#FFFFFF" d ="M -4.200,28.050 A 0.500,0.500 0 0,0 -3.700,28.550 "/>
<path stroke="none" fill="#FFFFFF" d ="M -0.700,28.550 A 0.500,0.500 0 0,0 -0.200,28.050 "/>
<line x1="-3.700" y1="26.750" x2="-0.700" y2="26.750" stroke="#000000" stroke-width="0.100" />
<line x1="-3.700" y1="28.550" x2="-0.700" y2="28.550" stroke="#000000" stroke-width="0.100" />
<path stroke="#000000" fill="none" stroke-width="0.100"  d ="M -3.700,26.750 A 0.500,0.500 0 0,0 -4.200,27.250 "/>
<path stroke="#000000" fill="none" stroke-width="0.100"  d ="M -0.200,27.250 A 0.500,0.500 0 0,0 -0.700,26.750 "/>
<line x1="-4.200" y1="27.250" x2="-4.200" y2="28.050" stroke="#000000" stroke-width="0.100" />
<line x1="-0.200" y1="27.250" x2="-0.200" y2="28.050" stroke="#000000" stroke-width="0.100" />
<path stroke="#000000" fill="none" stroke-width="0.100"  d ="M -4.200,28.050 A 0.500,0.500 0 0,0 -3.700,28.550 "/>
<path stroke="#000000" fill="none" stroke-width="0.100"  d ="M -0.700,28.550 A 0.500,0.500 0 0,0 -0.200,28.050 "/>
<text x="-2.200" y="27.935"  fill="#000000" text-anchor="middle" font-size="0.80" font-family="sans" font-style="normal" font-weight="400">
Draws</text>
<rect x="-3.600" y="29.600" width="3.000" height="1.800" fill="#FFFFFF" stroke="none" stroke-width="0"/>
<path stroke="none" fill="#FFFFFF" d ="M -3.600,29.600 A 0.500,0.500 0 0,0 -4.100,30.100 "/>
<path stroke="none" fill="#FFFFFF" d ="M -0.100,30.100 A 0.500,0.500 0 0,0 -0.600,29.600 "/>
<rect x="-4.100" y="30.100" width="4.000" height="0.800" fill="#FFFFFF" stroke="none" stroke-width="0"/>
<path stroke="none" fill="#FFFFFF" d ="M -4.100,30.900 A 0.500,0.500 0 0,0 -3.600,31.400 "/>
<path stroke="none" fill="#FFFFFF" d ="M -0.600,31.400 A 0.500,0.500 0 0,0 -0.100,30.900 "/>
<line x1="-3.600" y1="29.600" x2="-0.600" y2="29.600" stroke="#000000" stroke-width="0.100" />
<line x1="-3.600" y1="31.400" x2="-0.600" y2="31.400" stroke="#000000" stroke-width="0.100" />
<path stroke="#000000" fill="none" stroke-width="0.100"  d ="M -3.600,29.600 A 0.500,0.500 0 0,0 -4.100,30.100 "/>
<path stroke="#000000" fill="none" stroke-width="0.100"  d ="M -0.100,30.100 A 0.500,0.500 0 0,0 -0.600,29.600 "/>
<line x1="-4.100" y1="30.100" x2="-4.100" y2="30.900" stroke="#000000" stroke-width="0.100" />
<line x1="-0.100" y1="30.100" x2="-0.100" y2="30.900" stroke="#000000" stroke-width="0.100" />
<path stroke="#000000" fill="none" stroke-width="0.100"  d ="M -4.100,30.900 A 0.500,0.500 0 0,0 -3.600,31.400 "/>
<path stroke="#000000" fill="none" stroke-width="0.100"  d ="M -0.600,31.400 A 0.500,0.500 0 0,0 -0.100,30.900 "/>
<text x="-2.100" y="30.785"  fill="#000000" text-anchor="middle" font-size="0.80" font-family="sans" font-style="normal" font-weight="400">
Buys</text>
<rect x="-3.600" y="35.350" width="3.000" height="1.800" fill="#FFFFFF" stroke="none" stroke-width="0"/>
<path stroke="none" fill="#FFFFFF" d ="M -3.600,35.350 A 0.500,0.500 0 0,0 -4.100,35.850 "/>
<path stroke="none" fill="#FFFFFF" d ="M -0.100,35.850 A 0.500,0.500 0 0,0 -0.600,35.350 "/>
<rect x="-4.100" y="35.850" width="4.000" height="0.800" fill="#FFFFFF" stroke="none" stroke-width="0"/>
<path stroke="none" fill="#FFFFFF" d ="M -4.100,36.650 A 0.500,0.500 0 0,0 -3.600,37.150 "/>
<path stroke="none" fill="#FFFFFF" d ="M -0.600,37.150 A 0.500,0.500 0 0,0 -0.100,36.650 "/>
<line x1="-3.600" y1="35.350" x2="-0.600" y2="35.350" stroke="#000000" stroke-width="0.100" />
<line x1="-3.600" y1="37.150" x2="-0.600" y2="37.150" stroke="#000000" stroke-width="0.100" />
<path stroke="#000000" fill="none" stroke-width="0.100"  d ="M -3.600,35.350 A 0.500,0.500 0 0,0 -4.100,35.850 "/>
<path stroke="#000000" fill="none" stroke-width="0.100"  d ="M -0.100,35.850 A 0.500,0.500 0 0,0 -0.600,35.350 "/>
<line x1="-4.100" y1="35.850" x2="-4.100" y2="36.650" stroke="#000000" stroke-width="0.100" />
<line x1="-0.100" y1="35.850" x2="-0.100" y2="36.650" stroke="#000000" stroke-width="0.100" />
<path stroke="#000000" fill="none" stroke-width="0.100"  d ="M -4.100,36.650 A 0.500,0.500 0 0,0 -3.600,37.150 "/>
<path stroke="#000000" fill="none" stroke-width="0.100"  d ="M -0.600,37.150 A 0.500,0.500 0 0,0 -0.100,36.650 "/>
<text x="-2.100" y="36.535"  fill="#000000" text-anchor="middle" font-size="0.80" font-family="sans" font-style="normal" font-weight="400">
Put</text>
<rect x="-3.600" y="24.050" width="3.000" height="1.800" fill="#FFFFFF" stroke="none" stroke-width="0"/>
<path stroke="none" fill="#FFFFFF" d ="M -3.600,24.050 A 0.500,0.500 0 0,0 -4.100,24.550 "/>
<path stroke="none" fill="#FFFFFF" d ="M -0.100,24.550 A 0.500,0.500 0 0,0 -0.600,24.050 "/>
<rect x="-4.100" y="24.550" width="4.000" height="0.800" fill="#FFFFFF" stroke="none" stroke-width="0"/>
<path stroke="none" fill="#FFFFFF" d ="M -4.100,25.350 A 0.500,0.500 0 0,0 -3.600,25.850 "/>
<path stroke="none" fill="#FFFFFF" d ="M -0.600,25.850 A 0.500,0.500 0 0,0 -0.100,25.350 "/>
<line x1="-3.600" y1="24.050" x2="-0.600" y2="24.050" stroke="#000000" stroke-width="0.100" />
<line x1="-3.600" y1="25.850" x2="-0.600" y2="25.850" stroke="#000000" stroke-width="0.100" />
<path stroke="#000000" fill="none" stroke-width="0.100"  d ="M -3.600,24.050 A 0.500,0.500 0 0,0 -4.100,24.550 "/>
<path stroke="#000000" fill="none" stroke-width="0.100"  d ="M -0.100,24.550 A 0.500,0.500 0 0,0 -0.600,24.050 "/>
<line x1="-4.100" y1="24.550" x2="-4.100" y2="25.350" stroke="#000000" stroke-width="0.100" />
<line x1="-0.100" y1="24.550" x2="-0.100" y2="25.350" stroke="#000000" stroke-width="0.100" />
<path stroke="#000000" fill="none" stroke-width="0.100"  d ="M -4.100,25.350 A 0.500,0.500 0 0,0 -3.600,25.850 "/>
<path stroke="#000000" fill="none" stroke-width="0.100"  d ="M -0.600,25.850 A 0.500,0.500 0 0,0 -0.100,25.350 "/>
<text x="-2.100" y="25.235"  fill="#000000" text-anchor="middle" font-size="0.80" font-family="sans" font-style="normal" font-weight="400">
Reveal</text>
<rect x="-3.550" y="32.550" width="3.000" height="1.800" fill="#FFFFFF" stroke="none" stroke-width="0"/>
<path stroke="none" fill="#FFFFFF" d ="M -3.550,32.550 A 0.500,0.500 0 0,0 -4.050,33.050 "/>
<path stroke="none" fill="#FFFFFF" d ="M -0.050,33.050 A 0.500,0.500 0 0,0 -0.550,32.550 "/>
<rect x="-4.050" y="33.050" width="4.000" height="0.800" fill="#FFFFFF" stroke="none" stroke-width="0"/>
<path stroke="none" fill="#FFFFFF" d ="M -4.050,33.850 A 0.500,0.500 0 0,0 -3.550,34.350 "/>
<path stroke="none" fill="#FFFFFF" d ="M -0.550,34.350 A 0.500,0.500 0 0,0 -0.050,33.850 "/>
<line x1="-3.550" y1="32.550" x2="-0.550" y2="32.550" stroke="#000000" stroke-width="0.100" />
<line x1="-3.550" y1="34.350" x2="-0.550" y2="34.350" stroke="#000000" stroke-width="0.100" />
<path stroke="#000000" fill="none" stroke-width="0.100"  d ="M -3.550,32.550 A 0.500,0.500 0 0,0 -4.050,33.050 "/>
<path stroke="#000000" fill="none" stroke-width="0.100"  d ="M -0.050,33.050 A 0.500,0.500 0 0,0 -0.550,32.550 "/>
<line x1="-4.050" y1="33.050" x2="-4.050" y2="33.850" stroke="#000000" stroke-width="0.100" />
<line x1="-0.050" y1="33.050" x2="-0.050" y2="33.850" stroke="#000000" stroke-width="0.100" />
<path stroke="#000000" fill="none" stroke-width="0.100"  d ="M -4.050,33.850 A 0.500,0.500 0 0,0 -3.550,34.350 "/>
<path stroke="#000000" fill="none" stroke-width="0.100"  d ="M -0.550,34.350 A 0.500,0.500 0 0,0 -0.050,33.850 "/>
<text x="-2.050" y="33.735"  fill="#000000" text-anchor="middle" font-size="0.80" font-family="sans" font-style="normal" font-weight="400">
Trashes</text>
<rect x="-3.450" y="38.050" width="3.000" height="1.800" fill="#FFFFFF" stroke="none" stroke-width="0"/>
<path stroke="none" fill="#FFFFFF" d ="M -3.450,38.050 A 0.500,0.500 0 0,0 -3.950,38.550 "/>
<path stroke="none" fill="#FFFFFF" d ="M 0.050,38.550 A 0.500,0.500 0 0,0 -0.450,38.050 "/>
<rect x="-3.950" y="38.550" width="4.000" height="0.800" fill="#FFFFFF" stroke="none" stroke-width="0"/>
<path stroke="none" fill="#FFFFFF" d ="M -3.950,39.350 A 0.500,0.500 0 0,0 -3.450,39.850 "/>
<path stroke="none" fill="#FFFFFF" d ="M -0.450,39.850 A 0.500,0.500 0 0,0 0.050,39.350 "/>
<line x1="-3.450" y1="38.050" x2="-0.450" y2="38.050" stroke="#000000" stroke-width="0.100" />
<line x1="-3.450" y1="39.850" x2="-0.450" y2="39.850" stroke="#000000" stroke-width="0.100" />
<path stroke="#000000" fill="none" stroke-width="0.100"  d ="M -3.450,38.050 A 0.500,0.500 0 0,0 -3.950,38.550 "/>
<path stroke="#000000" fill="none" stroke-width="0.100"  d ="M 0.050,38.550 A 0.500,0.500 0 0,0 -0.450,38.050 "/>
<line x1="-3.950" y1="38.550" x2="-3.950" y2="39.350" stroke="#000000" stroke-width="0.100" />
<line x1="0.050" y1="38.550" x2="0.050" y2="39.350" stroke="#000000" stroke-width="0.100" />
<path stroke="#000000" fill="none" stroke-width="0.100"  d ="M -3.950,39.350 A 0.500,0.500 0 0,0 -3.450,39.850 "/>
<path stroke="#000000" fill="none" stroke-width="0.100"  d ="M -0.450,39.850 A 0.500,0.500 0 0,0 0.050,39.350 "/>
<text x="-1.950" y="39.235"  fill="#000000" text-anchor="middle" font-size="0.80" font-family="sans" font-style="normal" font-weight="400">
Gains</text>
<line x1="-8.465" y1="32.350" x2="-4.347" y2="25.369" stroke="#000000" stroke-width="0.100" />
<polygon fill="#000000" stroke="none" stroke-width="0.100" points="-4.157,25.046 -4.196,25.604 -4.347,25.369 -4.626,25.350 "/>
<polygon fill="none" stroke="#000000" stroke-width="0.100"  points="-4.157,25.046 -4.196,25.604 -4.347,25.369 -4.626,25.350 "/>
<line x1="-8.465" y1="32.350" x2="-4.527" y2="28.011" stroke="#000000" stroke-width="0.100" />
<polygon fill="#000000" stroke="none" stroke-width="0.100" points="-4.275,27.733 -4.426,28.271 -4.527,28.011 -4.796,27.935 "/>
<polygon fill="none" stroke="#000000" stroke-width="0.100"  points="-4.275,27.733 -4.426,28.271 -4.527,28.011 -4.796,27.935 "/>
<line x1="-8.465" y1="32.350" x2="-4.548" y2="30.690" stroke="#000000" stroke-width="0.100" />
<polygon fill="#000000" stroke="none" stroke-width="0.100" points="-4.203,30.544 -4.566,30.969 -4.548,30.690 -4.761,30.509 "/>
<polygon fill="none" stroke="#000000" stroke-width="0.100"  points="-4.203,30.544 -4.566,30.969 -4.548,30.690 -4.761,30.509 "/>
<line x1="-8.465" y1="32.350" x2="-4.522" y2="33.332" stroke="#000000" stroke-width="0.100" />
<polygon fill="#000000" stroke="none" stroke-width="0.100" points="-4.158,33.423 -4.704,33.545 -4.522,33.332 -4.583,33.060 "/>
<polygon fill="none" stroke="#000000" stroke-width="0.100"  points="-4.158,33.423 -4.704,33.545 -4.522,33.332 -4.583,33.060 "/>
<line x1="-8.465" y1="32.350" x2="-4.463" y2="35.926" stroke="#000000" stroke-width="0.100" />
<polygon fill="#000000" stroke="none" stroke-width="0.100" points="-4.183,36.176 -4.723,36.029 -4.463,35.926 -4.390,35.656 "/>
<polygon fill="none" stroke="#000000" stroke-width="0.100"  points="-4.183,36.176 -4.723,36.029 -4.463,35.926 -4.390,35.656 "/>
<line x1="-8.465" y1="32.350" x2="-4.225" y2="38.548" stroke="#000000" stroke-width="0.100" />
<polygon fill="#000000" stroke="none" stroke-width="0.100" points="-4.013,38.858 -4.502,38.586 -4.225,38.548 -4.089,38.304 "/>
<polygon fill="none" stroke="#000000" stroke-width="0.100"  points="-4.013,38.858 -4.502,38.586 -4.225,38.548 -4.089,38.304 "/>
<line x1="2.330" y1="17.800" x2="9.850" y2="20.914" stroke="#000000" stroke-width="0.100" />
<polygon fill="#000000" stroke="none" stroke-width="0.100" points="10.197,21.057 9.639,21.097 9.850,20.914 9.830,20.635 "/>
<polygon fill="none" stroke="#000000" stroke-width="0.100"  points="10.197,21.057 9.639,21.097 9.850,20.914 9.830,20.635 "/>
<line x1="-19.950" y1="9.250" x2="-15.155" y2="30.975" stroke="#000000" stroke-width="0.100" />
<polygon fill="#000000" stroke="none" stroke-width="0.100" points="-15.074,31.341 -15.426,30.906 -15.155,30.975 -14.938,30.799 "/>
<polygon fill="none" stroke="#000000" stroke-width="0.100"  points="-15.074,31.341 -15.426,30.906 -15.155,30.975 -14.938,30.799 "/>
</svg>