<?xml version="1.0" encoding="UTF-8" standalone="no"?>
<!-- Created by diasvg.py -->
<svg width="33.183cm" height="26.813cm" viewBox="-22.952 32.400 10.230 59.213"
 xmlns="http://www.w3.org/2000/svg"
 xmlns:xlink="http://www.w3.org/1999/xlink">
<rect x="-8.140" y="32.450" width="6.018" height="1.800" fill="#FFFFFF" stroke="none" stroke-width="0"/>
<path stroke="none" fill="#FFFFFF" d ="M -8.140,32.450 A 0.900,0.900 0 0,0 -9.040,33.350 "/>
<path stroke="none" fill="#FFFFFF" d ="M -1.222,33.350 A 0.900,0.900 0 0,0 -2.122,32.450 "/>
<rect x="-9.040" y="33.350" width="7.817" height="0.000" fill="#FFFFFF" stroke="none" stroke-width="0"/>
<path stroke="none" fill="#FFFFFF" d ="M -9.040,33.350 A 0.900,0.900 0 0,0 -8.140,34.250 "/>
<path stroke="none" fill="#FFFFFF" d ="M -2.122,34.250 A 0.900,0.900 0 0,0 -1.222,33.350 "/>
<line x1="-8.140" y1="32.450" x2="-2.122" y2="32.450" stroke="#000000" stroke-width="0.100" />
<line x1="-8.140" y1="34.250" x2="-2.122" y2="34.250" stroke="#000000" stroke-width="0.100" />
<path stroke="#000000" fill="none" stroke-width="0.100"  d ="M -8.140,32.450 A 0.900,0.900 0 0,0 -9.040,33.350 "/>
<path stroke="#000000" fill="none" stroke-width="0.100"  d ="M -1.222,33.350 A 0.900,0.900 0 0,0 -2.122,32.450 "/>
<line x1="-9.040" y1="33.350" x2="-9.040" y2="33.350" stroke="#000000" stroke-width="0.100" />
<line x1="-1.222" y1="33.350" x2="-1.222" y2="33.350" stroke="#000000" stroke-width="0.100" />
<path stroke="#000000" fill="none" stroke-width="0.100"  d ="M -9.040,33.350 A 0.900,0.900 0 0,0 -8.140,34.250 "/>
<path stroke="#000000" fill="none" stroke-width="0.100"  d ="M -2.122,34.250 A 0.900,0.900 0 0,0 -1.222,33.350 "/>
<text x="-5.131" y="33.545"  fill="#000000" text-anchor="middle" font-size="0.80" font-family="sans" font-style="normal" font-weight="400">
Restore missing Data</text>
<rect x="5.710" y="46.275" width="3.570" height="1.800" fill="#FFFFFF" stroke="none" stroke-width="0"/>
<path stroke="none" fill="#FFFFFF" d ="M 5.710,46.275 A 0.900,0.900 0 0,0 4.810,47.175 "/>
<path stroke="none" fill="#FFFFFF" d ="M 10.180,47.175 A 0.900,0.900 0 0,0 9.280,46.275 "/>
<rect x="4.810" y="47.175" width="5.370" height="0.000" fill="#FFFFFF" stroke="none" stroke-width="0"/>
<path stroke="none" fill="#FFFFFF" d ="M 4.810,47.175 A 0.900,0.900 0 0,0 5.710,48.075 "/>
<path stroke="none" fill="#FFFFFF" d ="M 9.280,48.075 A 0.900,0.900 0 0,0 10.180,47.175 "/>
<line x1="5.710" y1="46.275" x2="9.280" y2="46.275" stroke="#000000" stroke-width="0.100" />
<line x1="5.710" y1="48.075" x2="9.280" y2="48.075" stroke="#000000" stroke-width="0.100" />
<path stroke="#000000" fill="none" stroke-width="0.100"  d ="M 5.710,46.275 A 0.900,0.900 0 0,0 4.810,47.175 "/>
<path stroke="#000000" fill="none" stroke-width="0.100"  d ="M 10.180,47.175 A 0.900,0.900 0 0,0 9.280,46.275 "/>
<line x1="4.810" y1="47.175" x2="4.810" y2="47.175" stroke="#000000" stroke-width="0.100" />
<line x1="10.180" y1="47.175" x2="10.180" y2="47.175" stroke="#000000" stroke-width="0.100" />
<path stroke="#000000" fill="none" stroke-width="0.100"  d ="M 4.810,47.175 A 0.900,0.900 0 0,0 5.710,48.075 "/>
<path stroke="#000000" fill="none" stroke-width="0.100"  d ="M 9.280,48.075 A 0.900,0.900 0 0,0 10.180,47.175 "/>
<text x="7.495" y="47.370"  fill="#000000" text-anchor="middle" font-size="0.80" font-family="sans" font-style="normal" font-weight="400">
Generate Elo </text>
<rect x="-7.140" y="56.563" width="4.638" height="2.600" fill="#FFFFFF" stroke="none" stroke-width="0"/>
<path stroke="none" fill="#FFFFFF" d ="M -7.140,56.563 A 1.000,1.000 0 0,0 -8.140,57.563 "/>
<path stroke="none" fill="#FFFFFF" d ="M -1.502,57.563 A 1.000,1.000 0 0,0 -2.502,56.563 "/>
<rect x="-8.140" y="57.563" width="6.638" height="0.600" fill="#FFFFFF" stroke="none" stroke-width="0"/>
<path stroke="none" fill="#FFFFFF" d ="M -8.140,58.163 A 1.000,1.000 0 0,0 -7.140,59.163 "/>
<path stroke="none" fill="#FFFFFF" d ="M -2.502,59.163 A 1.000,1.000 0 0,0 -1.502,58.163 "/>
<line x1="-7.140" y1="56.563" x2="-2.502" y2="56.563" stroke="#000000" stroke-width="0.100" />
<line x1="-7.140" y1="59.163" x2="-2.502" y2="59.163" stroke="#000000" stroke-width="0.100" />
<path stroke="#000000" fill="none" stroke-width="0.100"  d ="M -7.140,56.563 A 1.000,1.000 0 0,0 -8.140,57.563 "/>
<path stroke="#000000" fill="none" stroke-width="0.100"  d ="M -1.502,57.563 A 1.000,1.000 0 0,0 -2.502,56.563 "/>
<line x1="-8.140" y1="57.563" x2="-8.140" y2="58.163" stroke="#000000" stroke-width="0.100" />
<line x1="-1.502" y1="57.563" x2="-1.502" y2="58.163" stroke="#000000" stroke-width="0.100" />
<path stroke="#000000" fill="none" stroke-width="0.100"  d ="M -8.140,58.163 A 1.000,1.000 0 0,0 -7.140,59.163 "/>
<path stroke="#000000" fill="none" stroke-width="0.100"  d ="M -2.502,59.163 A 1.000,1.000 0 0,0 -1.502,58.163 "/>
<text x="-4.821" y="57.658"  fill="#000000" text-anchor="middle" font-size="0.80" font-family="sans" font-style="normal" font-weight="400">
Strategy search</text>
<text x="-4.821" y="58.458"  fill="#000000" text-anchor="middle" font-size="0.80" font-family="sans" font-style="normal" font-weight="400">
Strategy changes</text>
<rect x="-22.002" y="46.275" width="7.315" height="1.800" fill="#FFFFFF" stroke="none" stroke-width="0"/>
<path stroke="none" fill="#FFFFFF" d ="M -22.002,46.275 A 0.900,0.900 0 0,0 -22.902,47.175 "/>
<path stroke="none" fill="#FFFFFF" d ="M -13.787,47.175 A 0.900,0.900 0 0,0 -14.687,46.275 "/>
<rect x="-22.902" y="47.175" width="9.115" height="0.000" fill="#FFFFFF" stroke="none" stroke-width="0"/>
<path stroke="none" fill="#FFFFFF" d ="M -22.902,47.175 A 0.900,0.900 0 0,0 -22.002,48.075 "/>
<path stroke="none" fill="#FFFFFF" d ="M -14.687,48.075 A 0.900,0.900 0 0,0 -13.787,47.175 "/>
<line x1="-22.002" y1="46.275" x2="-14.687" y2="46.275" stroke="#000000" stroke-width="0.100" />
<line x1="-22.002" y1="48.075" x2="-14.687" y2="48.075" stroke="#000000" stroke-width="0.100" />
<path stroke="#000000" fill="none" stroke-width="0.100"  d ="M -22.002,46.275 A 0.900,0.900 0 0,0 -22.902,47.175 "/>
<path stroke="#000000" fill="none" stroke-width="0.100"  d ="M -13.787,47.175 A 0.900,0.900 0 0,0 -14.687,46.275 "/>
<line x1="-22.902" y1="47.175" x2="-22.902" y2="47.175" stroke="#000000" stroke-width="0.100" />
<line x1="-13.787" y1="47.175" x2="-13.787" y2="47.175" stroke="#000000" stroke-width="0.100" />
<path stroke="#000000" fill="none" stroke-width="0.100"  d ="M -22.902,47.175 A 0.900,0.900 0 0,0 -22.002,48.075 "/>
<path stroke="#000000" fill="none" stroke-width="0.100"  d ="M -14.687,48.075 A 0.900,0.900 0 0,0 -13.787,47.175 "/>
<text x="-18.345" y="47.370"  fill="#000000" text-anchor="middle" font-size="0.80" font-family="sans" font-style="normal" font-weight="400">
Create persistent queries</text>
<ellipse cx="-4.552" cy="44.575" rx="0.300" ry="0.300" fill="#FFFFFF" stroke="none"  /><ellipse cx="-4.552" cy="44.575" rx="0.300" ry="0.300" fill="none" stroke="#000000"  stroke-width="0.100" /><line x1="-5.752" y1="45.175" x2="-3.352" y2="45.175" stroke="#000000" stroke-width="0.100" />
<line x1="-4.552" y1="44.875" x2="-4.552" y2="46.375" stroke="#000000" stroke-width="0.100" />
<line x1="-4.552" y1="46.375" x2="-5.752" y2="47.675" stroke="#000000" stroke-width="0.100" />
<line x1="-4.552" y1="46.375" x2="-3.352" y2="47.675" stroke="#000000" stroke-width="0.100" />
<text x="-4.552" y="48.870"  fill="#000000" text-anchor="middle" font-size="0.80" font-family="sans" font-style="normal" font-weight="400">
Database</text>
<path stroke="#000000" fill="none" stroke-width="0.100"  d ="M -4.552,43.675 A 5.662,5.662 0 0,0 -4.940,34.366 "/>
<polyline fill="none" stroke="#000000" stroke-width="0.100"  points="-4.476,34.339 -5.034,34.306 -4.726,34.772 "/>
<path stroke="#000000" fill="none" stroke-width="0.100"  d ="M -5.131,34.250 A 6.423,6.423 0 0,0 -4.723,43.531 "/>
<polyline fill="none" stroke="#000000" stroke-width="0.100"  points="-5.185,43.482 -4.639,43.604 -4.869,43.095 "/>
<path stroke="#000000" fill="none" stroke-width="0.100"  d ="M 4.682,46.992 A 5.282,5.282 0 0,0 -3.302,46.375 "/>
<polyline fill="none" stroke="#000000" stroke-width="0.100"  points="4.262,46.806 4.748,47.082 4.677,46.528 "/>
<path stroke="#000000" fill="none" stroke-width="0.100"  d ="M -4.628,56.451 A 4.355,4.355 0 0,0 -4.552,49.075 "/>
<polyline fill="none" stroke="#000000" stroke-width="0.100"  points="-4.403,56.050 -4.723,56.509 -4.164,56.489 "/>
<path stroke="#000000" fill="none" stroke-width="0.100"  d ="M -13.615,47.318 A 5.529,5.529 0 0,0 -5.802,46.375 "/>
<polyline fill="none" stroke="#000000" stroke-width="0.100"  points="-13.161,47.386 -13.703,47.248 -13.488,47.764 "/>
<path stroke="#000000" fill="none" stroke-width="0.100"  d ="M -3.184,46.565 A 5.057,5.057 0 0,0 4.810,47.175 "/>
<polyline fill="none" stroke="#000000" stroke-width="0.100"  points="-2.775,46.774 -3.245,46.471 -3.205,47.029 "/>
<path stroke="#000000" fill="none" stroke-width="0.100"  d ="M -4.751,49.177 A 4.231,4.231 0 0,0 -4.821,56.563 "/>
<polyline fill="none" stroke="#000000" stroke-width="0.100"  points="-4.996,49.565 -4.653,49.123 -5.212,49.115 "/>
<path stroke="#000000" fill="none" stroke-width="0.100"  d ="M -5.993,46.258 A 6.489,6.489 0 0,0 -13.787,47.175 "/>
<polyline fill="none" stroke="#000000" stroke-width="0.100"  points="-6.453,46.257 -5.897,46.315 -6.184,45.836 "/>
</svg>